<?xml version="1.0" encoding="utf-8"?>
<!-- Generator: Adobe Illustrator 19.0.1, SVG Export Plug-In . SVG Version: 6.00 Build 0)  -->
<svg version="1.1" id="Capa_1" xmlns="http://www.w3.org/2000/svg" xmlns:xlink="http://www.w3.org/1999/xlink" x="0px" y="0px"
	 viewBox="111 -110.1 421.1 421.1" style="enable-background:new 111 -110.1 421.1 421.1;" xml:space="preserve">
<style type="text/css">
	.st0{fill:#545465;}
	.st1{fill:#FFD7A3;}
	.st2{fill:#FDC88E;}
	.st3{fill:#FFE1B2;}
	.st4{fill:#FF6953;}
	.st5{fill:#C55F54;}
	.st6{fill:#E35F49;}
	.st7{fill:#9DE8F7;}
	.st8{fill:#1A1718;}
</style>
<g>
	<g>
		<path class="st0" d="M236,63.2l12,54.1c0.7,3,3.3,5.2,6.4,5.2h14.5V69.8L236,63.2z"/>
	</g>
	<g>
		<path class="st0" d="M407.1,63.2l-12,54.1c-0.7,3-3.3,5.2-6.4,5.2h-14.5V69.8L407.1,63.2z"/>
	</g>
	<g>
		<path class="st1" d="M249.3,146.9c14.7-9.5,13.1-37.7,13.1-44.3h118.4c0,6.6-1.8,34.8,12.9,44.3l-72.1,80.8L249.3,146.9z"/>
	</g>
	<g>
		<path class="st2" d="M367.6,175.1l26.1-28.1c-14.7-9.5-12.9-37.7-12.9-44.3H262.3C270.8,127.1,327.1,169,367.6,175.1z"/>
	</g>
	<g>
		<path class="st3" d="M413.7,17.1c0,52.7-30.3,118.4-92.1,118.4s-92.1-65.8-92.1-118.4s41.2-72.4,92.1-72.4S413.7-35.6,413.7,17.1z
			"/>
	</g>
	<g>
		<path class="st4" d="M472.9,311c10.9,0,19.7-8.8,19.7-19.7v-67.8c0-29-22.6-59.9-50.1-68.7l-41.2-13.2c-22.1,16.9-53.8,40-79.8,40
			c-26,0-57.6-23.1-79.8-40l-41.2,13.2c-27.6,8.8-50.1,39.7-50.1,68.7v67.8c0,10.9,8.8,19.7,19.7,19.7H472.9z"/>
	</g>
	<g>
		<path class="st5" d="M203.1,311H440V154l-38.7-12.4c-22.1,16.9-53.8,40-79.8,40c-26,0-57.6-23.1-79.8-40L203.1,154L203.1,311
			L203.1,311z"/>
	</g>
	<g>
		<path class="st6" d="M301.8,194.8l10.4,10.4c5.1,5.1,13.5,5.1,18.6,0l17-17l-26.3-6.6L301.8,194.8z"/>
	</g>
	<g>
		<path class="st0" d="M275.5-94.7c57.6-39.5,174.8-4.9,138.2,125L394,10.6c0,0-73.5-17.5-138.2-52.6"/>
	</g>
	<g>
		<path class="st4" d="M321.6,181.6l-27.5,27.5c-2.9,2.9-7.6,2.5-10-0.8L236,142.2l15.3-15.3c2.5-2.5,6.5-2.6,9.1-0.2L321.6,181.6z"
			/>
	</g>
	<g>
		<path class="st4" d="M321.6,181.6l27.5,27.5c2.9,2.9,7.6,2.5,10-0.8l48.1-66.2l-15.3-15.3c-2.5-2.5-6.5-2.6-9.1-0.2L321.6,181.6z"
			/>
	</g>
	<g>
		<path class="st3" d="M232.6,30.3c-9.9-2.5-16.3,2.8-16.3,13.2c0,13.7,13.3,47.3,27.2,26.3C257.4,48.8,232.6,30.3,232.6,30.3z"/>
	</g>
	<g>
		<path class="st3" d="M409,30.3c10.8-2.5,17.8,2.8,17.8,13.2c0,13.7-14.5,47.3-29.7,26.3S409,30.3,409,30.3z"/>
	</g>
	<g>
		<path class="st0" d="M229.4,30.3c2.2,6.5,6.6,13.2,6.6,13.2s38.4-49.4,39.5-85.5S268.9-75,268.9-75l13.2-6.6c0,0,23-10.2-6.6-13.2
			C234.2-98.8,196.5-69,229.4,30.3z"/>
	</g>
	<g>
		<g>
			<g>
				<path class="st0" d="M306.7,25.4v4.9c0,14.5-11.8,26.3-26.3,26.3h-6.6c-7.3,0-13.2-5.9-13.2-13.2V25.4H306.7 M306.7,18.8h-46.1
					c-3.6,0-6.6,2.9-6.6,6.6v18.1c0,10.9,8.8,19.7,19.7,19.7h6.6c18.2,0,32.9-14.7,32.9-32.9v-4.9C313.3,21.7,310.4,18.8,306.7,18.8
					L306.7,18.8z"/>
			</g>
		</g>
		<g>
			<g>
				<path class="st0" d="M382.3,25.4v18.1c0,7.3-5.9,13.2-13.2,13.2h-6.6c-14.5,0-26.3-11.8-26.3-26.3v-4.9H382.3 M382.3,18.8h-46.1
					c-3.6,0-6.6,2.9-6.6,6.6v4.9c0,18.2,14.7,32.9,32.9,32.9h6.6c10.9,0,19.7-8.8,19.7-19.7V25.4C388.9,21.7,385.9,18.8,382.3,18.8
					L382.3,18.8z"/>
			</g>
		</g>
		<g>
			<g>
				<polygon class="st0" points="229.3,18.8 260.7,18.8 260.7,34.4 229.3,26.9 				"/>
			</g>
		</g>
		<g>
			<g>
				<polygon class="st0" points="413.7,18.8 382.3,18.8 382.3,34.4 413.7,26.9 				"/>
			</g>
		</g>
		<g>
			<g>
				<path class="st0" d="M336.5,34.4h-6.6c0-2.8-3.9-5.3-8.5-5.3c-4.5,0-8.4,2.5-8.4,5.3h-6.6c0-6.7,6.6-11.9,15-11.9
					C329.9,22.5,336.5,27.7,336.5,34.4z"/>
			</g>
		</g>
	</g>
</g>
<circle class="st7" cx="449.6" cy="211" r="75.4"/>
<polygon class="st8" points="503.1,207.9 453.9,207.9 453.9,158.7 447.8,158.7 447.8,207.9 398.6,207.9 398.6,214.1 447.8,214.1 
	447.8,263.3 453.9,263.3 453.9,214.1 503.1,214.1 "/>
</svg>
